<svg id="Layer_1" enable-background="new 0 0 450 450" height="512" viewBox="0 0 450 450" width="512" xmlns="http://www.w3.org/2000/svg" xmlns:xlink="http://www.w3.org/1999/xlink"><linearGradient id="SVGID_1_" gradientTransform="matrix(1 0 0 -1 0 450)" gradientUnits="userSpaceOnUse" x1="51.693" x2="398.309" y1="397.093" y2="50.478"><stop offset="0" stop-color="#00dbde"/><stop offset="1" stop-color="#fc00ff"/></linearGradient><path d="m440 332.22h-430c-2.76 0-5-2.24-5-5s2.24-5 5-5h430c2.76 0 5 2.24 5 5s-2.24 5-5 5zm-30.9 41.66h-368.2c-19.79 0-35.9-16.1-35.9-35.9v-221.43c0-19.79 16.1-35.9 35.9-35.9h40.36c2.76 0 5 2.24 5 5s-2.24 5-5 5h-40.36c-14.28 0-25.9 11.62-25.9 25.9v221.44c0 14.28 11.62 25.9 25.9 25.9h368.2c14.28 0 25.9-11.62 25.9-25.9v-221.44c0-14.28-11.62-25.9-25.9-25.9h-40.36c-2.76 0-5-2.24-5-5s2.24-5 5-5h40.36c19.8 0 35.9 16.1 35.9 35.9v221.44c0 19.79-16.1 35.89-35.9 35.89zm-144.96 59.74c-1.8 0-3.54-.97-4.43-2.67-11.11-21.13-11.12-42.16-.05-64.3 1.23-2.47 4.23-3.47 6.71-2.23 2.47 1.23 3.47 4.24 2.23 6.71-9.66 19.32-9.68 36.85-.05 55.17 1.29 2.44.35 5.47-2.1 6.75-.73.39-1.52.57-2.31.57zm-78.28 0c-.78 0-1.58-.18-2.32-.58-2.44-1.29-3.38-4.31-2.1-6.75 9.63-18.32 9.62-35.86-.05-55.17-1.24-2.47-.24-5.47 2.24-6.71 2.47-1.24 5.47-.23 6.71 2.23 11.07 22.14 11.06 43.17-.05 64.3-.9 1.71-2.63 2.68-4.43 2.68zm101.97 0h-125.66c-2.76 0-5-2.24-5-5s2.24-5 5-5h125.65c2.76 0 5 2.24 5 5s-2.23 5-4.99 5zm65.52-133.75h-256.7c-11.24 0-20.39-9.15-20.39-20.39v-242.71c0-11.24 9.15-20.39 20.39-20.39h256.7c11.24 0 20.39 9.15 20.39 20.39v242.71c0 11.24-9.15 20.39-20.39 20.39zm-256.7-273.49c-5.73 0-10.39 4.66-10.39 10.39v242.71c0 5.73 4.66 10.39 10.39 10.39h256.7c5.73 0 10.39-4.66 10.39-10.39v-242.71c0-5.73-4.66-10.39-10.39-10.39zm272.09 58.06h-287.48c-2.76 0-5-2.24-5-5s2.24-5 5-5h287.48c2.76 0 5 2.24 5 5s-2.24 5-5 5zm-250.46-18.59c-8.51 0-15.44-6.93-15.44-15.44s6.92-15.44 15.44-15.44c8.51 0 15.44 6.92 15.44 15.44s-6.93 15.44-15.44 15.44zm0-20.88c-3 0-5.44 2.44-5.44 5.44s2.44 5.44 5.44 5.44 5.44-2.44 5.44-5.44-2.45-5.44-5.44-5.44zm41.42 20.88c-8.51 0-15.44-6.93-15.44-15.44s6.93-15.44 15.44-15.44 15.44 6.92 15.44 15.44-6.93 15.44-15.44 15.44zm0-20.88c-3 0-5.44 2.44-5.44 5.44s2.44 5.44 5.44 5.44 5.44-2.44 5.44-5.44-2.44-5.44-5.44-5.44zm41.42 20.88c-8.51 0-15.44-6.93-15.44-15.44s6.93-15.44 15.44-15.44 15.44 6.92 15.44 15.44-6.93 15.44-15.44 15.44zm0-20.88c-3 0-5.44 2.44-5.44 5.44s2.44 5.44 5.44 5.44 5.44-2.44 5.44-5.44-2.44-5.44-5.44-5.44zm98.85 10.44h-62.62c-2.76 0-5-2.24-5-5s2.24-5 5-5h62.62c2.76 0 5 2.24 5 5s-2.24 5-5 5zm42.64 0h-17.3c-2.76 0-5-2.24-5-5s2.24-5 5-5h17.3c2.76 0 5 2.24 5 5s-2.24 5-5 5zm-8.65 8.65c-2.76 0-5-2.24-5-5v-17.3c0-2.76 2.24-5 5-5s5 2.24 5 5v17.3c0 2.76-2.24 5-5 5zm34.78 81.29h-166.18c-2.76 0-5-2.24-5-5s2.24-5 5-5h166.18c2.76 0 5 2.24 5 5s-2.24 5-5 5zm-252.53 0h-34.95c-2.76 0-5-2.24-5-5s2.24-5 5-5h34.95c2.76 0 5 2.24 5 5s-2.23 5-5 5zm43.18 43.17c-26.56 0-48.17-21.61-48.17-48.17s21.61-48.17 48.17-48.17 48.17 21.61 48.17 48.17-21.61 48.17-48.17 48.17zm0-86.35c-21.05 0-38.17 17.12-38.17 38.17s17.13 38.17 38.17 38.17 38.17-17.13 38.17-38.17-17.12-38.17-38.17-38.17zm-29.07 75.04c-.77 0-1.56-.18-2.3-.56-2.45-1.27-3.41-4.29-2.14-6.74 6.37-12.29 18.95-20.07 32.84-20.31.43-.02.9-.02 1.32 0 13.87.24 26.46 8 32.86 20.28 1.28 2.45.33 5.47-2.12 6.75s-5.47.33-6.75-2.12c-4.71-9.04-13.98-14.75-24.2-14.91-.11 0-.28-.01-.39-.02l-.2.01c-.14.01-.2.01-.34.01-10.2.16-19.46 5.87-24.14 14.91-.88 1.72-2.63 2.7-4.44 2.7zm29.07-17.6c-12.26 0-22.24-9.97-22.24-22.23s9.98-22.24 22.24-22.24 22.23 9.98 22.23 22.24-9.97 22.23-22.23 22.23zm0-34.47c-6.75 0-12.24 5.49-12.24 12.24s5.49 12.23 12.24 12.23 12.23-5.49 12.23-12.23-5.49-12.24-12.23-12.24zm167.69 149.27h-88.17c-11.9 0-21.58-9.68-21.58-21.58v-28.19c0-11.9 9.68-21.58 21.58-21.58h88.17c11.9 0 21.58 9.68 21.58 21.58v28.19c0 11.9-9.68 21.58-21.58 21.58zm-88.16-61.35c-6.39 0-11.58 5.2-11.58 11.58v28.19c0 6.39 5.2 11.58 11.58 11.58h88.17c6.39 0 11.58-5.19 11.58-11.58v-28.19c0-6.39-5.19-11.58-11.58-11.58zm92.47-31.51h-96.79c-2.76 0-5-2.24-5-5s2.24-5 5-5h96.79c2.76 0 5 2.24 5 5s-2.24 5-5 5zm-138.34 62.19h-86.71c-2.76 0-5-2.24-5-5s2.24-5 5-5h86.71c2.76 0 5 2.24 5 5s-2.24 5-5 5zm0-27.01h-86.71c-2.76 0-5-2.24-5-5s2.24-5 5-5h86.71c2.76 0 5 2.24 5 5s-2.24 5-5 5zm0 54.01h-86.71c-2.76 0-5-2.24-5-5s2.24-5 5-5h86.71c2.76 0 5 2.24 5 5s-2.24 5-5 5z" fill="url(#SVGID_1_)"/></svg>