<?xml version="1.0" encoding="UTF-8"?>
<svg xmlns="http://www.w3.org/2000/svg" id="Layer_1" data-name="Layer 1" viewBox="0 0 24 24">
    <path d="M11.98,14.11c-1.055,0-1.908-.672-2.549-1.311-.898-.896-1.316-1.707-1.316-2.552,0-.851,.431-1.693,1.316-2.577,2.304-2.297,4.037-1.1,5.139,0,.898,.895,1.316,1.704,1.316,2.549,0,.852-.431,1.695-1.316,2.578h0c-.964,.962-1.829,1.312-2.589,1.312Zm.04-6.747c-.558,0-1.164,.299-1.883,1.017-.688,.686-1.022,1.297-1.022,1.868,0,.562,.325,1.147,1.022,1.843,1.15,1.149,2.175,1.547,3.727,0,.688-.686,1.022-1.298,1.022-1.869,0-.562-.325-1.147-1.022-1.842-.617-.616-1.198-1.017-1.844-1.017Zm2.197,5.082h0Z"/>
    <path d="M11.993,1C7.182,1.065,2.349,5.793,2.349,10.369c0,6.307,9,12.304,9.378,12.55,.083,.054,.178,.081,.273,.081,.099,0,.197-.029,.282-.087,.378-.259,9.264-6.399,9.369-12.569-.147-4.737-4.834-9.278-9.658-9.344Zm0,20.891c-1.501-1.044-8.537-6.22-8.645-11.529C3.486,6.197,7.77,2.058,11.993,2c4.24,.058,8.529,4.206,8.658,8.351-.087,5.06-7.16,10.455-8.658,11.541Z"/>
</svg>
