<svg id="Layer_1" enable-background="new 0 0 512 512" viewBox="0 0 512 512" xmlns="http://www.w3.org/2000/svg" xmlns:xlink="http://www.w3.org/1999/xlink"><linearGradient id="SVGID_1_" gradientUnits="userSpaceOnUse" x1="256" x2="256" y1="38.518" y2="473.482"><stop offset="0" stop-color="#17a6d7"/><stop offset=".0617" stop-color="#259adb"/><stop offset=".1856" stop-color="#3b87e2"/><stop offset=".2649" stop-color="#4380e4"/><stop offset="1" stop-color="#9735fd"/></linearGradient><path d="m120.16 282.896c0-21.387-17.4-38.788-38.788-38.788-21.372 0-38.759 17.401-38.759 38.788 0 21.372 17.387 38.76 38.759 38.76 21.388 0 38.788-17.389 38.788-38.76zm-38.788 24.721c-13.632 0-24.722-11.09-24.722-24.722 0-13.648 11.09-24.75 24.722-24.75 13.647 0 24.75 11.102 24.75 24.75 0 13.633-11.103 24.722-24.75 24.722zm358.524-10.343c-3.876 0-7.019 3.143-7.019 7.019v119.291c0 9.565-3.745 18.559-10.544 25.326-6.796 6.763-15.8 10.494-25.418 10.532-19.728-.055-35.76-16.117-35.76-35.858v-16.964c0-3.877-3.142-7.019-7.019-7.019h-265.745v-34.071h9.775c3.215 0 6.019-2.185 6.805-5.302l4.47-17.713c3.324-1.555 6.517-3.395 9.55-5.499l17.586 4.976c3.092.874 6.385-.463 7.991-3.247l16.765-29.069c1.604-2.78 1.117-6.294-1.182-8.534l-13.089-12.754c.306-3.665.306-7.348 0-11.012l13.089-12.754c2.3-2.241 2.786-5.755 1.18-8.536l-16.765-29.041c-1.606-2.781-4.896-4.116-7.987-3.244l-17.61 4.977c-2.986-2.076-6.163-3.916-9.498-5.5l-4.503-17.724c-.791-3.112-3.592-5.291-6.803-5.291h-9.775v-132.76c0-8.242 6.718-14.947 14.975-14.947h314.565c8.242 0 14.947 6.705 14.947 14.947v26.541c0 3.877 3.142 7.019 7.019 7.019 3.876 0 7.019-3.142 7.019-7.019v-26.541c0-15.982-13.003-28.985-28.984-28.985h-314.565c-15.998 0-29.012 13.002-29.012 28.985v132.759h-9.747c-3.21 0-6.012 2.179-6.803 5.291l-4.497 17.703c-3.3 1.555-6.487 3.402-9.529 5.519l-17.583-4.975c-3.094-.872-6.384.463-7.99 3.244l-16.764 29.041c-1.606 2.781-1.119 6.296 1.18 8.536l13.089 12.754c-.306 3.665-.306 7.349 0 11.012l-13.089 12.755c-2.299 2.24-2.785 5.753-1.182 8.534l16.765 29.069c1.606 2.784 4.899 4.121 7.991 3.247l17.602-4.981c3.038 2.097 6.217 3.932 9.506 5.487l4.5 17.739c.79 3.113 3.592 5.293 6.803 5.293h9.747v34.07h-38.191c-3.876 0-7.019 3.142-7.019 7.019v16.964c0 27.514 22.384 49.898 49.898 49.898h208.175 109.339.247.213c.066 0 .131-.008.197-.01 13.223-.105 25.64-5.275 35.023-14.613 9.466-9.42 14.679-21.948 14.679-35.276v-119.289c0-3.877-3.142-7.019-7.018-7.019zm-369.829 54.217-4-15.763c-.549-2.163-2.092-3.934-4.159-4.775-4.392-1.787-8.583-4.205-12.458-7.187-1.759-1.356-4.055-1.797-6.192-1.192l-15.626 4.422-11.308-19.608 11.636-11.338c1.599-1.558 2.361-3.784 2.053-5.994-.662-4.758-.662-9.586 0-14.35.307-2.21-.455-4.436-2.054-5.993l-11.634-11.336 11.304-19.581 15.628 4.423c2.152.61 4.462.158 6.224-1.216 3.853-3 8.027-5.417 12.407-7.185 2.075-.837 3.626-2.613 4.177-4.781l3.998-15.737h22.642l3.998 15.737c.546 2.15 2.076 3.915 4.126 4.761 4.513 1.861 8.691 4.283 12.42 7.197 1.764 1.378 4.077 1.833 6.232 1.224l15.658-4.425 11.305 19.583-11.634 11.336c-1.599 1.558-2.361 3.783-2.053 5.994.662 4.759.662 9.586 0 14.35-.307 2.21.455 4.436 2.054 5.993l11.636 11.338-11.308 19.608-15.626-4.422c-2.149-.608-4.46-.156-6.222 1.216-3.813 2.967-7.992 5.373-12.423 7.149-2.085.836-3.644 2.62-4.193 4.798l-3.976 15.754zm217.15 107.953h-208.175c-19.774 0-35.861-16.086-35.861-35.86v-9.945h303.937v9.945c0 14.061 5.846 26.782 15.235 35.86zm223.36-328.304c-1.834-6.82-6.19-12.504-12.268-16.006l-21.582-12.483c-12.602-7.253-28.779-2.912-36.062 9.678l-10.171 17.614c-.001.001-.001.002-.002.003s-.001.002-.002.003l-89.85 155.604c-.545.944-.862 2.001-.928 3.09l-4.262 71.068c-.159 2.653 1.195 5.169 3.496 6.499 1.089.628 2.3.941 3.51.941 1.349 0 2.697-.389 3.866-1.161l59.418-39.214c.91-.6 1.668-1.405 2.212-2.348l89.745-155.448c.033-.054.073-.101.105-.156.043-.074.076-.151.116-.226l10.058-17.422c3.515-6.089 4.437-13.204 2.601-20.036zm-160.273 215.402 2.742-45.721 35.488 20.49zm49.005-35.218-43.002-24.829 82.831-143.449 42.989 24.827zm96.512-167.169-6.674 11.56-42.988-24.827 6.66-11.534c3.414-5.901 10.998-7.935 16.894-4.543l21.568 12.475c.004.003.009.006.014.008 2.832 1.63 4.865 4.29 5.726 7.491.862 3.207.435 6.535-1.2 9.37zm-267.754 101.211 10.957-10.948-10.957-10.948c-2.742-2.74-2.744-7.184-.004-9.926 2.74-2.743 7.184-2.745 9.926-.005l10.966 10.956 10.966-10.956c2.743-2.738 7.187-2.738 9.926.005 2.74 2.742 2.738 7.186-.004 9.926l-10.957 10.948 10.957 10.948c2.742 2.74 2.744 7.184.004 9.926-1.371 1.372-3.168 2.059-4.965 2.059-1.795 0-3.59-.685-4.961-2.054l-10.966-10.957-10.966 10.957c-1.371 1.368-3.165 2.054-4.961 2.054-1.797 0-3.595-.687-4.965-2.059-2.74-2.743-2.738-7.186.004-9.926zm-15.925 77.369c0 16.107 13.104 29.211 29.211 29.211s29.212-13.104 29.212-29.211c0-16.108-13.104-29.212-29.212-29.212-16.107 0-29.211 13.105-29.211 29.212zm44.386 0c0 8.366-6.807 15.173-15.174 15.173s-15.174-6.807-15.174-15.173c0-8.367 6.807-15.174 15.174-15.174 8.366.001 15.174 6.807 15.174 15.174zm21.624-185.187c0-16.108-13.104-29.212-29.211-29.212-16.092 0-29.183 13.104-29.183 29.212s13.092 29.212 29.183 29.212c16.107 0 29.211-13.104 29.211-29.212zm-44.357 0c0-8.367 6.794-15.174 15.146-15.174 8.367 0 15.174 6.807 15.174 15.174s-6.807 15.174-15.174 15.174c-8.352 0-15.146-6.806-15.146-15.174zm76.211 148.048h-71.353-39.413c-7.458 0-13.526 6.068-13.526 13.526v47.227c0 7.458 6.068 13.525 13.526 13.525h113.778c3.876 0 7.019 3.143 7.019 7.019 0 3.877-3.142 7.019-7.019 7.019h-113.777c-15.199 0-27.563-12.365-27.563-27.563v-47.227c0-15.199 12.365-27.564 27.563-27.564h39.413 71.353c7.474 0 13.555-6.068 13.555-13.525v-47.228c0-7.458-6.081-13.525-13.555-13.525h-98.461-47.227c-15.198 0-27.563-12.365-27.563-27.563v-78.903l-20.52 24.348c-2.499 2.964-6.926 3.343-9.89.844-2.964-2.497-3.342-6.926-.844-9.889l32.906-39.044c1.334-1.583 3.298-2.496 5.367-2.496s4.033.913 5.367 2.496l32.906 39.044c2.498 2.963 2.12 7.392-.844 9.889-1.317 1.11-2.923 1.653-4.52 1.653-1.998 0-3.982-.849-5.371-2.496l-20.52-24.348v78.902c0 7.458 6.068 13.525 13.526 13.525h47.227 98.461c15.214 0 27.592 12.365 27.592 27.563v47.228c-.001 15.197-12.378 27.563-27.593 27.563z" fill="url(#SVGID_1_)"/></svg>