<svg id="Layer_5" enable-background="new 0 0 64 64" height="512" viewBox="0 0 64 64" width="512" xmlns="http://www.w3.org/2000/svg" xmlns:xlink="http://www.w3.org/1999/xlink"><linearGradient id="SVGID_1_" gradientUnits="userSpaceOnUse" x1="32" x2="32" y1="63" y2="1"><stop offset="0" stop-color="#9f2fff"/><stop offset="1" stop-color="#0bb1d3"/></linearGradient><path d="m11 45h2v2h-2zm4 2h2v-2h-2zm4 0h2v-2h-2zm21-30.667v-8.666c0-1.471 1.196-2.667 2.667-2.667.355 0 .7.069 1.027.206l10.769 4.486c.933.39 1.537 1.296 1.537 2.308s-.604 1.918-1.538 2.308l-10.77 4.487c-.325.136-.671.205-1.025.205-1.471 0-2.667-1.196-2.667-2.667zm2 0c0 .456.504.79.922.616l10.771-4.487c.186-.078.307-.259.307-.462s-.121-.384-.308-.462l-10.77-4.487c-.081-.034-.167-.051-.255-.051-.368 0-.667.299-.667.667zm-41 17.667v-4c0-1.654 1.346-3 3-3h1v-2h-1c-1.654 0-3-1.346-3-3v-4c0-1.654 1.346-3 3-3h1v-1c0-2.757 2.243-5 5-5h23v-5c0-1.654 1.346-3 3-3h24c1.654 0 3 1.346 3 3v16c0 1.654-1.346 3-3 3h-1v23c0 2.757-2.243 5-5 5h-13.963c.168 1.595.997 3.041 2.296 4h2.667c2.757 0 5 2.243 5 5 0 1.654-1.346 3-3 3h-30c-1.654 0-3-1.346-3-3 0-2.757 2.243-5 5-5h2.666c1.299-.959 2.128-2.405 2.296-4h-13.962c-2.757 0-5-2.243-5-5v-9h-1c-1.654 0-3-1.346-3-3zm44 23h-26c-1.654 0-3 1.346-3 3 0 .552.449 1 1 1h30c.551 0 1-.448 1-1 0-1.654-1.346-3-3-3zm-6.963-6h-12.074c-.114 1.464-.634 2.845-1.492 4h15.059c-.858-1.155-1.378-2.536-1.493-4zm18.963-5v-3h-50v3c0 1.654 1.346 3 3 3h44c1.654 0 3-1.346 3-3zm-22-26c0 .551.449 1 1 1h24c.551 0 1-.449 1-1v-16c0-.551-.449-1-1-1h-24c-.551 0-1 .449-1 1zm-31 3h12c.551 0 1-.449 1-1v-4c0-.551-.449-1-1-1h-12c-.551 0-1 .449-1 1v4c0 .551.449 1 1 1zm3 4h9c1.654 0 3 1.346 3 3v4c0 1.654-1.346 3-3 3h-9v4h50v-18h-21c-1.654 0-3-1.346-3-3v-9h-23c-1.654 0-3 1.346-3 3v1h9c1.654 0 3 1.346 3 3v4c0 1.654-1.346 3-3 3h-9zm-4 7c0 .552.449 1 1 1h12c.551 0 1-.448 1-1v-4c0-.551-.449-1-1-1h-12c-.551 0-1 .449-1 1zm8-3h-2v2h2zm-4 0h-2v2h2zm8 0h-2v2h2zm-10-10h10v-2h-10zm26-8h-10v2h10zm-8 4h-2v2h2zm2 2h6v-2h-6zm6 2h-10v2h10zm0 4h-10v2h10zm0 4h-10v2h10zm0 4h-10v2h10zm0 4h-10v2h10zm18-4h6v6h-6zm2 4h2v-2h-2zm-10-4h6v6h-6zm2 4h2v-2h-2zm-4 2h-6v-6h6zm-2-4h-2v2h2zm-2-10h-2v2h2zm20 0h-18v2h18zm0 4h-22v2h22z" fill="url(#SVGID_1_)"/></svg>