<svg id="Layer_1" height="512" viewBox="0 0 512 512" width="512" xmlns="http://www.w3.org/2000/svg" data-name="Layer 1"><path d="m256 512a256 256 0 0 1 -181.02-437.02 256 256 0 0 1 362.04 362.039 254.328 254.328 0 0 1 -181.02 74.981zm0-486.951c-127.346 0-230.951 103.604-230.951 230.951s103.605 230.951 230.951 230.951 230.951-103.604 230.951-230.951-103.605-230.951-230.951-230.951z"/><path d="m396.389 256a16.99 16.99 0 0 0 -5.008-12.091l-56.53-56.53a12.525 12.525 0 0 0 -17.713 17.712l38.385 38.384h-227.388a12.525 12.525 0 0 0 0 25.05h227.388l-38.385 38.384a12.525 12.525 0 0 0 17.713 17.712l56.529-56.53a16.984 16.984 0 0 0 5.009-12.091z"/></svg>